<?xml version="1.0" encoding="UTF-8"?>
<!DOCTYPE svg PUBLIC "-//W3C//DTD SVG 1.0//EN" "http://www.w3.org/TR/2001/REC-SVG-20010904/DTD/svg10.dtd">
<!-- Creator: CorelDRAW 2017 -->
<svg xmlns="http://www.w3.org/2000/svg" xml:space="preserve" width="50.7998mm" height="42.3332mm" version="1.0" style="shape-rendering:geometricPrecision; text-rendering:geometricPrecision; image-rendering:optimizeQuality; fill-rule:evenodd; clip-rule:evenodd"
viewBox="0 0 5080 4233"
 xmlns:xlink="http://www.w3.org/1999/xlink">
 <defs>
  <style type="text/css">
   <![CDATA[
    .fil0 {fill:none}
    .fil1 {fill:white}
    .fil2 {fill:white;fill-rule:nonzero}
   ]]>
  </style>
 </defs>
 <g id="Layer_x0020_1">
  <metadata id="CorelCorpID_0Corel-Layer"/>
  <rect class="fil0" width="5080" height="4233"/>
  <g id="_643408728">
   <g>
    <path class="fil1" d="M2173 730l357 -357 -166 -166 177 -177 177 177 -166 166 357 357 -254 259c-38,39 -75,74 -111,106l-2 2 0 0c-188,162 -363,225 -522,191 -131,-32 -224,-92 -289,-162 -39,-39 -127,-127 -264,-262 44,-44 127,-127 250,-250 119,117 240,237 362,360 102,108 241,135 419,80l-323 -323z"/>
    <path class="fil1" d="M2907 1544l-357 357 166 166 -177 177 -177 -177 166 -166 -357 -357 254 -259c38,-39 75,-74 111,-106l2 -2 0 0c188,-162 363,-225 522,-191 131,32 224,92 289,162 39,39 127,127 264,262 -44,44 -127,127 -250,250 -119,-117 -240,-237 -362,-360 -102,-108 -241,-135 -419,-80l323 323z"/>
   </g>
   <path class="fil2" d="M1485 2906l0 -330 334 0 0 58 -257 0 0 87 139 0 0 60 -139 0 0 125 -77 0zm415 -132l145 0 -71 -134 -73 134zm-148 132l187 -330 74 0 189 330 -86 0 -40 -72 -209 0 -38 72 -77 0zm516 0l0 -330 52 0 233 195c8,7 15,13 21,18 6,6 12,12 17,18 -1,-19 -2,-32 -2,-39 0,-8 -1,-14 -1,-18l0 -173 69 0 0 330 -52 0 -243 -204c-6,-5 -11,-10 -15,-14 -4,-4 -8,-8 -12,-13 1,10 2,20 2,29 1,9 1,17 1,24l0 178 -69 0zm602 -132l145 0 -71 -134 -73 134zm-148 132l187 -330 74 0 189 330 -86 0 -40 -72 -209 0 -38 72 -77 0zm765 -273l-173 0 0 88 173 0c13,0 22,-2 27,-6 5,-4 7,-11 7,-20l0 -35c0,-10 -2,-16 -7,-20 -5,-4 -14,-6 -27,-6zm-249 273l0 -330 283 0c26,0 45,5 57,15 12,10 18,26 18,49l0 74c0,22 -6,39 -18,49 -12,10 -31,15 -57,15l-207 0 0 129 -76 0z"/>
  </g>
 </g>
</svg>
