<?xml version="1.0" encoding="UTF-8"?>
<!DOCTYPE svg PUBLIC "-//W3C//DTD SVG 1.0//EN" "http://www.w3.org/TR/2001/REC-SVG-20010904/DTD/svg10.dtd">
<!-- Creator: CorelDRAW 2017 -->
<svg xmlns="http://www.w3.org/2000/svg" xml:space="preserve" width="50.7998mm" height="42.3332mm" version="1.0" style="shape-rendering:geometricPrecision; text-rendering:geometricPrecision; image-rendering:optimizeQuality; fill-rule:evenodd; clip-rule:evenodd"
viewBox="0 0 5080 4233"
 xmlns:xlink="http://www.w3.org/1999/xlink">
 <defs>
  <style type="text/css">
   <![CDATA[
    .fil0 {fill:white;fill-rule:nonzero}
   ]]>
  </style>
 </defs>
 <g id="Layer_x0020_1">
  <metadata id="CorelCorpID_0Corel-Layer"/>
  <g id="_647996824">
   <path class="fil0" d="M2542 1144c-7,-39 -16,-79 -26,-118 -14,-53 -31,-103 -50,-149 -19,-46 -39,-89 -62,-128 -23,-39 -47,-75 -74,-106 -208,-249 -388,87 -539,565 -116,488 -135,868 172,761 39,-14 79,-31 118,-53 39,-22 79,-48 119,-78 40,-30 79,-64 119,-102 29,-28 57,-57 83,-87 26,-30 51,-61 74,-93 99,-138 94,-253 66,-411zm-910 -966c1,-1 2,-2 3,-3 1,-1 2,-2 3,-3 1,-1 2,-2 3,-3 1,-1 2,-2 3,-3 1,-1 2,-2 3,-3 1,-1 2,-2 3,-3 1,-1 2,-2 3,-3 1,-1 2,-2 3,-2 1,-1 2,-2 4,-2 1,-1 2,-1 4,-2 1,-1 2,-1 4,-2 1,-1 3,-1 4,-2 1,-1 3,-1 4,-2 1,-1 3,-1 4,-2 1,-1 3,-1 4,-1 1,0 3,-1 4,-1 12,-3 24,-5 38,-6 21,0 43,2 66,6 23,5 48,12 74,22 26,10 54,22 83,36 29,15 60,32 91,52 65,42 127,88 187,138 60,50 117,105 172,163 55,58 108,121 158,187 321,426 290,635 23,1024 -47,69 -97,133 -149,194 -52,61 -107,118 -165,171 -58,53 -118,102 -181,147 -31,22 -60,41 -89,56 -28,16 -56,29 -81,40 -26,11 -50,19 -73,25 -14,3 -28,6 -42,8 -14,2 -29,2 -43,0 -72,-8 -110,-78 -144,-133 -21,-34 -40,-71 -58,-110 -18,-39 -34,-80 -49,-124 -15,-43 -28,-89 -40,-135 -66,-256 -102,-526 -86,-790 3,-54 8,-108 13,-161 5,-53 12,-104 19,-155 8,-50 16,-99 26,-147 10,-47 21,-93 34,-137 13,-44 27,-86 43,-126 16,-40 33,-77 53,-112 19,-35 40,-68 63,-98z"/>
   <path class="fil0" d="M3062 1048c-34,-10 -70,-19 -106,-26 -49,-9 -97,-15 -143,-17 -46,-2 -90,0 -133,5 -42,5 -83,14 -123,26 -306,95 -139,417 153,774 319,327 606,511 686,164 10,-44 17,-91 21,-139 4,-48 5,-98 3,-150 -2,-52 -8,-106 -16,-161 -6,-41 -14,-81 -24,-120 -10,-39 -21,-76 -33,-113 -55,-157 -147,-202 -286,-244zm-1240 469c-3,-11 -5,-23 -5,-35 0,-12 2,-24 5,-37 4,-13 9,-26 16,-40 11,-20 24,-41 40,-62 16,-21 35,-42 57,-63 22,-21 46,-43 73,-65 27,-22 57,-44 90,-66 67,-45 137,-86 208,-123 71,-37 144,-69 219,-97 75,-28 152,-52 231,-73 504,-128 651,-7 812,425 28,76 53,153 72,231 20,78 35,156 45,236 11,79 17,160 18,241 1,39 -1,77 -3,111 -3,35 -7,67 -12,97 -5,30 -12,58 -20,83 -8,25 -17,48 -28,68 -7,14 -15,26 -24,36 -4,5 -9,10 -13,14 -5,4 -9,8 -14,11 -2,2 -5,3 -7,5 -3,1 -5,3 -8,4 -3,1 -5,2 -8,4 -3,1 -5,2 -8,3 -71,22 -147,32 -227,33 -80,1 -164,-9 -250,-26 -86,-17 -175,-42 -265,-73 -11,-4 -23,-8 -34,-12 -11,-4 -23,-8 -34,-12 -11,-4 -23,-8 -34,-13 -11,-4 -23,-9 -34,-13 -11,-5 -23,-9 -34,-14 -11,-5 -23,-9 -34,-14 -193,-82 -372,-221 -524,-368 -32,-31 -61,-62 -89,-93 -27,-32 -53,-64 -75,-97 -23,-33 -43,-66 -60,-101 -17,-34 -31,-69 -43,-104z"/>
   <path class="fil0" d="M2553 1220c-3,-24 -7,-50 -12,-76 -7,-39 -16,-79 -26,-118 -14,-53 -31,-103 -50,-149 -19,-46 -39,-89 -62,-128 -20,-34 -41,-65 -63,-94l50 -113 10 11c55,58 108,121 158,187 171,227 242,393 231,557 -47,-17 -98,-30 -147,-44 -6,-3 -12,-6 -18,-9 -3,-2 -6,-3 -9,-4l0 0c-17,-7 -32,-11 -48,-14 -4,-2 -8,-4 -12,-6z"/>
   <path class="fil0" d="M3131 759c-235,2 -450,51 -657,139 -3,-7 -5,-14 -8,-21 -15,-37 -31,-71 -48,-104 226,-92 460,-145 713,-151l0 137z"/>
   <polygon class="fil0" points="1670,2494 1978,2494 1978,2803 1670,2803 "/>
  </g>
 </g>
</svg>
