<?xml version="1.0" encoding="UTF-8"?>
<!DOCTYPE svg PUBLIC "-//W3C//DTD SVG 1.0//EN" "http://www.w3.org/TR/2001/REC-SVG-20010904/DTD/svg10.dtd">
<!-- Creator: CorelDRAW 2017 -->
<svg xmlns="http://www.w3.org/2000/svg" xml:space="preserve" width="50.7998mm" height="42.3332mm" version="1.0" style="shape-rendering:geometricPrecision; text-rendering:geometricPrecision; image-rendering:optimizeQuality; fill-rule:evenodd; clip-rule:evenodd"
viewBox="0 0 5080 4233"
 xmlns:xlink="http://www.w3.org/1999/xlink">
 <defs>
  <style type="text/css">
   <![CDATA[
    .fil1 {fill:white}
    .fil0 {fill:white;fill-rule:nonzero}
   ]]>
  </style>
 </defs>
 <g id="Layer_x0020_1">
  <metadata id="CorelCorpID_0Corel-Layer"/>
  <g id="_643408392">
   <path class="fil0" d="M3520 2883l-1821 0 0 -2394 1856 0 0 2394 -35 0zm-1751 -70l1716 0 0 -2253 -1716 0 0 2253z"/>
   <circle class="fil1" cx="2130" cy="776" r="722"/>
   <circle class="fil1" cx="3293" cy="1247" r="379"/>
   <circle class="fil1" cx="3186" cy="554" r="216"/>
   <circle class="fil1" cx="2306" cy="1818" r="290"/>
   <path class="fil1" d="M2921 2829l3 0 7 -12c5,-101 -19,-168 -38,-266 -8,-41 -10,-61 -16,-91 -30,-155 -47,-201 -56,-358 -3,-54 -26,-196 -35,-266 -8,-63 -22,-129 -14,-189 3,-24 2,-22 20,-42 2,-2 228,-235 232,-244 4,-10 -2,-22 -4,-28 -8,11 -185,159 -220,194 -5,5 -7,7 -13,7 10,-48 3,-60 -27,-146 -7,-20 -31,-82 -43,-103 -7,-12 -15,-24 -17,-35 -26,-41 -25,-74 -55,-90 -12,12 0,39 10,61 6,14 26,53 30,66l20 49c7,16 15,34 20,50 42,126 25,143 8,249 -2,15 -6,32 -8,46 -5,40 -9,145 -7,188 1,17 2,32 3,48 2,25 14,135 11,144 -12,-5 -89,-68 -106,-82 -9,-7 -24,-13 -47,-33 -10,-9 -48,-46 -54,-40 -1,1 -1,0 -2,1 0,0 -5,-2 -5,9 1,16 68,90 77,110 21,27 80,90 92,114 8,16 2,32 0,49 -7,44 -21,203 -22,247 -2,110 -30,291 -45,393l302 0z"/>
  </g>
 </g>
</svg>
