<?xml version="1.0" encoding="UTF-8"?>
<!DOCTYPE svg PUBLIC "-//W3C//DTD SVG 1.0//EN" "http://www.w3.org/TR/2001/REC-SVG-20010904/DTD/svg10.dtd">
<!-- Creator: CorelDRAW 2017 -->
<svg xmlns="http://www.w3.org/2000/svg" xml:space="preserve" width="50.7998mm" height="42.3332mm" version="1.0" style="shape-rendering:geometricPrecision; text-rendering:geometricPrecision; image-rendering:optimizeQuality; fill-rule:evenodd; clip-rule:evenodd"
viewBox="0 0 5080 4233"
 xmlns:xlink="http://www.w3.org/1999/xlink">
 <defs>
  <style type="text/css">
   <![CDATA[
    .fil1 {fill:white}
    .fil0 {fill:white;fill-rule:nonzero}
   ]]>
  </style>
 </defs>
 <g id="Layer_x0020_1">
  <metadata id="CorelCorpID_0Corel-Layer"/>
  <g id="_641919072">
   <polygon class="fil0" points="1872,2216 1793,2532 1650,2532 1764,2067 1966,2067 1990,2391 2170,2067 2383,2067 2268,2533 2117,2533 2207,2202 2020,2533 1895,2533 "/>
   <polygon class="fil0" points="2813,2533 2926,2067 3070,2067 3213,2362 3287,2067 3433,2067 3316,2533 3170,2533 3026,2238 2951,2533 "/>
   <polygon class="fil0" points="2628,2465 2486,2465 2469,2533 2611,2533 "/>
   <polygon class="fil0" points="2438,2067 2408,2195 2553,2195 2493,2439 2635,2439 2696,2195 2842,2195 2875,2067 "/>
   <path class="fil1" d="M1205 120l0 2669 2671 0 0 -2669 -2671 0zm138 1759l0 -1622 2396 0 0 1622 -2396 0zm1 69l2395 0 0 703 -2395 0 0 -703z"/>
   <path class="fil1" d="M2541 644c-635,0 -1149,203 -1149,454 0,251 514,454 1149,454 635,0 1149,-203 1149,-454 0,-251 -515,-454 -1149,-454zm-256 505l0 0zm264 -23l0 0zm136 96l0 0zm-930 105l0 0zm227 -122l0 -350 90 0 0 268 0 11 1 8 1 5 2 3 3 2c2,1 3,1 6,2l0 0 9 1 12 1 2 0c4,0 8,-1 12,-3 4,-2 9,-5 13,-8 4,-4 9,-8 13,-14 4,-6 9,-13 13,-22l0 0c3,-5 5,-10 7,-15l5 -16 5 -17 7 -27 89 7 -7 38 -3 16 -1 7 0 6c-1,6 -1,12 -1,17 0,5 0,10 1,14 1,4 1,8 2,11 1,2 2,4 2,5l0 0 3 0c3,0 6,0 8,-1 3,-1 5,-3 8,-5 3,-3 6,-6 8,-9 2,-3 5,-7 6,-11l5 -13 4 -14 3 -14 2 -15 5 -40 96 9 -9 15 -1 4 -1 15 -1 16 0 11 0 13 1 10 2 9 2 7 2 5 1 3 3 4 1 0 5 0 4 -1 3 -2 3 -3 0 0c2,-2 4,-5 6,-8 2,-3 4,-7 6,-12 2,-5 3,-10 5,-16 1,-6 3,-12 4,-19l1 -11 1 -11 0 -40 89 5 1 14 0 5 0 5 1 20 2 18 2 14 3 12 3 9 3 7 3 5 2 4 3 3 0 0 5 1 2 0 22 -1c6,0 12,-1 17,-2l0 0 13 -2 9 -3c4,-1 6,-3 7,-4l2 -2 0 -3 0 -4 -1 -5 -1 -7 -2 -8 -3 -10 -3 -8 -7 -16 -3 -7 -7 -12 -2 -4 -2 -2 -8 -9 70 -56 7 9 5 7 5 8 5 9 5 10 5 10 5 11 5 11 4 11c4,11 7,22 9,32 2,10 3,20 3,29 0,9 -1,18 -3,26 -2,8 -5,16 -10,23 -4,7 -9,14 -14,19 -5,6 -11,11 -17,15 -6,4 -12,7 -18,10 -6,3 -13,5 -20,7 -6,2 -13,3 -20,4 -7,1 -14,2 -21,2l-19 1c-9,0 -17,1 -26,0 -7,0 -14,-1 -21,-3 -7,-2 -13,-4 -20,-7 -8,-3 -15,-8 -21,-13l-8 -8c-5,5 -10,9 -16,13 -6,4 -13,8 -20,10 -7,3 -14,5 -22,6 -7,1 -15,2 -23,1 -7,0 -13,-1 -19,-3 -6,-1 -12,-4 -18,-6 -6,-3 -11,-6 -16,-10 -4,-3 -8,-7 -12,-11l-2 2c-12,11 -24,18 -38,23 -14,5 -29,7 -44,6 -7,0 -14,-1 -21,-3 -7,-2 -13,-4 -19,-8 -6,-3 -12,-7 -17,-12 -4,-3 -7,-7 -10,-11 -6,5 -13,10 -19,14 -7,4 -14,8 -22,10 -7,2 -14,4 -21,5 -7,1 -14,2 -21,2l-6 0 -13 0 -11 -1 -9 -2 -5 -1 -4 16c-3,10 -7,19 -11,28 -4,9 -9,17 -14,24 -5,8 -10,14 -16,21 -4,4 -8,8 -13,12 -4,4 -9,7 -14,11 -5,3 -10,6 -15,9 -5,3 -11,5 -16,8 -6,2 -12,5 -19,6 -6,2 -13,3 -20,5 -7,1 -14,2 -21,3 -7,1 -14,1 -22,1 -6,0 -12,0 -19,-1 -6,-1 -12,-2 -18,-3 -6,-1 -12,-3 -18,-5 -6,-2 -11,-4 -17,-7 -6,-3 -11,-5 -16,-8 -5,-3 -10,-6 -15,-10 -5,-4 -9,-7 -13,-11 -4,-4 -8,-8 -12,-13 -7,-9 -13,-19 -18,-29 -5,-10 -8,-21 -10,-33 -1,-6 -2,-12 -2,-18 0,-6 0,-12 0,-19 0,-6 1,-13 2,-19 1,-6 2,-13 4,-20l4 -16c9,-31 19,-60 31,-90l83 33 -14 39 -9 27 -4 14 -3 14c-3,14 -4,25 -2,36 1,10 5,18 11,25 3,4 6,7 10,10 4,3 8,6 13,8 10,4 21,7 34,7 17,0 32,-2 44,-7 12,-4 22,-11 30,-19 3,-4 6,-7 9,-11 3,-4 5,-8 6,-12l5 -13 3 -12 2 -10 1 -8zm795 -111l1 -39 1 -33c0,-10 0,-20 0,-29l-1 -45 -2 -34 -2 -22 -2 -12 -3 -14 87 -24c2,7 4,15 5,22l2 11 2 15 2 21 1 23 1 31 0 37 -1 45 -2 51 -3 60 -4 69 -1 10 -90 14 4 -67 2 -48 2 -41zm-191 -193l56 -56 65 65 -64 64 -64 -64 8 -8zm337 367c6,-8 10,-17 13,-27 3,-10 5,-19 6,-30 1,-10 0,-21 -2,-32 -2,-11 -5,-23 -9,-35 -4,-11 -8,-22 -14,-34l-11 -11 88 -38 7 7 20 44c3,6 5,11 8,15 2,4 5,8 7,12 2,3 5,6 7,8 3,2 5,4 8,5l0 0c2,1 5,2 9,3 4,1 8,1 13,1l0 0 21 -1 16 -2 13 -2 10 -3 6 -3 3 -2 2 -2 0 -3 0 -4 -1 -5 -1 -7 -2 -8 -6 -18 -7 -16 -3 -7 -7 -12 -11 -17 69 -55 7 9 6 7c8,12 15,24 21,38l5 11 5 11 4 11c8,23 12,43 12,61 0,19 -4,35 -12,49 -3,5 -6,10 -9,14 -4,4 -7,8 -12,12 -4,4 -9,7 -14,10 -5,3 -10,6 -16,8 -6,3 -13,5 -20,7 -7,2 -15,4 -24,5 -8,1 -17,2 -26,3 -9,1 -18,1 -28,1l-23 0c-3,0 -6,0 -9,-1 -3,-1 -6,-1 -8,-3l-3 13c-3,10 -7,20 -12,30 -5,10 -11,20 -17,29 -6,9 -14,18 -22,26 -8,8 -16,16 -26,23 -9,7 -19,14 -30,20 -11,6 -22,11 -33,16 -12,5 -24,9 -36,12l-11 3 -28 -82 12 -4c16,-5 30,-10 43,-17 12,-6 23,-13 32,-21 9,-8 16,-16 22,-24zm123 42l52 -52 44 44 43 -43 61 61 -61 60 -43 -44 -43 43 -61 -61 8 -8zm231 -217l1 -39 1 -33c0,-10 0,-20 0,-29l-1 -45 -2 -34 -2 -22 -2 -12 -3 -14 87 -24c2,7 4,15 5,22l2 11 2 15 2 21 1 23 1 31 0 37 -1 45 -2 51 -3 60 -4 69 -1 10 -90 14 4 -67 2 -48 2 -41z"/>
  </g>
 </g>
</svg>
