<?xml version="1.0" encoding="UTF-8"?>
<!DOCTYPE svg PUBLIC "-//W3C//DTD SVG 1.0//EN" "http://www.w3.org/TR/2001/REC-SVG-20010904/DTD/svg10.dtd">
<!-- Creator: CorelDRAW 2017 -->
<svg xmlns="http://www.w3.org/2000/svg" xml:space="preserve" width="50.7998mm" height="42.3332mm" version="1.0" style="shape-rendering:geometricPrecision; text-rendering:geometricPrecision; image-rendering:optimizeQuality; fill-rule:evenodd; clip-rule:evenodd"
viewBox="0 0 5080 4233"
 xmlns:xlink="http://www.w3.org/1999/xlink">
 <defs>
  <style type="text/css">
   <![CDATA[
    .fil1 {fill:white}
    .fil0 {fill:white;fill-rule:nonzero}
   ]]>
  </style>
 </defs>
 <g id="Layer_x0020_1">
  <metadata id="CorelCorpID_0Corel-Layer"/>
  <g id="_395201992">
   <g>
    <g>
     <path class="fil0" d="M2478 1053c160,0 306,65 411,170 105,105 170,250 170,411 0,160 -65,306 -170,411 -105,105 -250,170 -411,170 -160,0 -306,-65 -411,-170 -105,-105 -170,-250 -170,-411 0,-160 65,-306 170,-411 105,-105 250,-170 411,-170zm355 226c-91,-91 -216,-147 -355,-147 -139,0 -264,56 -355,147 -91,91 -147,216 -147,355 0,139 56,264 147,355 91,91 216,147 355,147 139,0 264,-56 355,-147 91,-91 147,-216 147,-355 0,-139 -56,-264 -147,-355z"/>
     <path class="fil1" d="M3012 1553c5,29 8,60 8,91 0,24 -2,47 -5,70 7,2 15,3 22,3l248 0c23,0 44,-9 59,-25 15,-15 25,-36 25,-59 0,-23 -9,-44 -25,-59 -15,-15 -36,-25 -59,-25l-248 0c-9,0 -17,1 -25,4z"/>
    </g>
    <g>
     <polygon class="fil0" points="2177,1147 2177,985 2065,873 1844,873 1844,855 2073,855 2195,977 2195,1147 "/>
     <path class="fil0" d="M2173 1147l0 -160 -109 -109 -223 0 0 -26 234 0 125 125 0 175 -26 0 0 -4zm8 -162l0 158 10 0 0 -164 -120 -120 -223 0 0 10 218 0 114 114 0 2z"/>
     <polygon class="fil0" points="2255,1098 2255,927 2103,795 2103,561 2122,561 2122,786 2273,918 2273,1098 "/>
     <path class="fil0" d="M2251 1098l0 -170 -151 -132 0 -239 26 0 0 227 151 132 0 186 -26 0 0 -4zm8 -171l0 167 10 0 0 -174 -151 -132 0 -223 -10 0 0 228 151 132 0 2z"/>
     <polygon class="fil0" points="2347,1083 2347,921 2245,819 2245,492 1977,224 1990,211 2263,484 2263,811 2366,914 2366,1083 "/>
     <path class="fil0" d="M2343 1083l0 -160 -102 -102 0 -327 -270 -270 19 -19c92,93 185,185 278,278l0 327 102 102 0 175 -26 0 0 -4zm8 -162l0 158 10 0 0 -164 -102 -102 0 -327 -269 -270 -7 7 266 266 0 327 102 102 0 2z"/>
     <polygon class="fil0" points="2426,1069 2426,507 2272,353 2285,340 2444,499 2444,1069 "/>
     <path class="fil0" d="M2421 1069l0 -561 -155 -155 19 -19 163 163 0 576 -26 0 0 -4zm8 -562l0 558 10 0 0 -564 -155 -155 -7 7 152 152 0 2z"/>
     <polygon class="fil0" points="2518,1079 2518,499 2680,338 2693,351 2537,507 2537,1079 "/>
     <path class="fil0" d="M2514 1079l0 -581c55,-55 110,-110 165,-165l19 19 -158 158 0 574 -26 0 0 -4zm8 -578l0 574 10 0 0 -570 154 -154 -7 -7 -157 157z"/>
     <polygon class="fil0" points="2601,1079 2601,904 2689,816 2689,499 2977,211 2990,224 2707,507 2707,824 2620,912 2620,1079 "/>
     <path class="fil0" d="M2597 1079l0 -176 88 -88 0 -317c97,-98 195,-195 292,-292l19 19 -284 284 0 317 -88 88 0 169 -26 0 0 -4zm8 -173l0 169 10 0 0 -165 88 -88 0 -317 281 -281 -7 -7 -284 284 0 317 -88 88z"/>
     <polygon class="fil0" points="2684,1122 2684,928 2845,767 2845,552 2864,552 2864,775 2703,936 2703,1122 "/>
     <path class="fil0" d="M2680 1122l0 -196 161 -161 0 -218 26 0 0 229 -161 161 0 189 -26 0 0 -4zm8 -192l0 188 10 0 0 -184 161 -161 0 -218 -10 0 0 213 -161 161z"/>
     <path class="fil0" d="M3113 858l-206 5 -119 119 0 194 -18 0 0 -201c43,-43 86,-87 130,-130l214 -5 0 18z"/>
     <path class="fil0" d="M3113 862l-204 5 -117 117 0 196 -26 0 0 -207 132 -132c73,-2 146,-4 219,-5l1 26 -4 0zm-206 -3l202 -5 0 -10 -208 5 -127 127 0 196 10 0 0 -191 121 -121 2 0z"/>
     <path class="fil0" d="M2984 116l101 0 0 101c0,14 -3,27 -8,39 -5,12 -13,24 -22,33 -9,9 -20,17 -33,22 -12,5 -25,8 -39,8l-101 0 0 -101c0,-14 3,-27 8,-39 5,-12 13,-24 22,-33 9,-9 21,-17 33,-22 12,-5 25,-8 39,-8zm75 26l-75 0c-10,0 -20,2 -28,6 -9,4 -17,9 -24,16 -7,7 -12,15 -16,24 -4,9 -6,18 -6,28l0 75 75 0c10,0 20,-2 28,-6 9,-4 17,-9 24,-16 7,-7 12,-15 16,-24 4,-9 6,-18 6,-28l0 -75z"/>
     <path class="fil0" d="M2686 243l101 0 0 101c0,14 -3,27 -8,39 -5,12 -13,24 -22,33 -9,9 -20,17 -33,22 -12,5 -25,8 -39,8l-101 0 0 -101c0,-14 3,-27 8,-39 5,-12 13,-24 22,-33l0 0c9,-9 20,-17 33,-22 12,-5 25,-8 39,-8zm75 26l-75 0c-10,0 -20,2 -28,6 -9,4 -17,9 -24,16 -7,7 -12,15 -16,24 -4,9 -6,18 -6,28l0 75 75 0c10,0 20,-2 28,-6 9,-4 17,-9 24,-16 14,-14 22,-32 22,-53l0 -75z"/>
     <path class="fil0" d="M3184 778l71 71 -71 71c-10,10 -21,17 -33,22 -12,5 -26,8 -39,8 -13,0 -26,-3 -39,-8 -12,-5 -23,-12 -33,-22l-71 -71 71 -71c10,-10 21,-17 33,-22 12,-5 26,-8 39,-8 13,0 26,3 39,8 12,5 23,12 33,22zm34 71l-53 -53c-7,-7 -15,-12 -24,-16 -9,-4 -19,-6 -29,-6 -10,0 -20,2 -29,6 -9,4 -17,9 -24,16l-53 53 53 53c7,7 15,12 24,16 9,4 19,6 29,6 10,0 20,-2 29,-6 9,-4 17,-9 24,-16l53 -53z"/>
     <path class="fil0" d="M2926 623l-71 72 -71 -71c-10,-10 -17,-21 -22,-33 -5,-12 -8,-26 -8,-39 0,-13 3,-26 8,-39 5,-12 12,-23 22,-33l71 -71 71 71c10,10 17,21 22,33 5,12 8,26 8,39 0,26 -10,52 -29,71zm-71 34l53 -53c7,-7 12,-15 16,-24 4,-9 6,-19 6,-29 0,-10 -2,-20 -6,-29 -4,-9 -9,-17 -16,-24l-53 -53 -53 53c-7,7 -12,15 -16,24 -4,9 -6,19 -6,29 0,10 2,20 6,29 4,9 9,17 16,24l53 53z"/>
     <path class="fil0" d="M1983 143l-75 0 0 75c0,10 2,20 6,28 4,9 9,17 16,24 7,7 15,12 24,16 9,4 18,6 28,6l75 0 0 -75c0,-10 -2,-20 -6,-28 -4,-9 -9,-17 -16,-24 -7,-7 -15,-12 -24,-16 -9,-4 -18,-6 -28,-6zm-88 -26l88 0c14,0 27,3 39,8 12,5 24,13 33,22 9,9 17,21 22,33 5,12 8,25 8,39l0 101 -101 0c-14,0 -27,-3 -39,-8 -12,-5 -23,-13 -33,-22 -9,-9 -17,-20 -22,-33 -5,-12 -8,-25 -8,-39l0 -101 13 0z"/>
     <path class="fil0" d="M2279 272l-75 0 0 75c0,10 2,20 6,28 4,9 9,17 16,24 7,7 15,12 24,16 9,4 18,6 28,6l75 0 0 -75c0,-10 -2,-20 -6,-28 -4,-9 -9,-17 -16,-24 -7,-7 -15,-12 -24,-16 -9,-4 -18,-6 -28,-6zm-88 -26l88 0c14,0 27,3 39,8 12,5 24,13 33,22 9,9 17,21 22,33 5,12 8,25 8,39l0 101 -101 0c-14,0 -27,-3 -39,-8 -12,-5 -24,-13 -33,-22 -9,-9 -17,-20 -22,-33 -5,-12 -8,-25 -8,-39l0 -101 13 0z"/>
     <path class="fil0" d="M1802 814l-53 53 53 53c7,7 15,13 24,16 9,4 19,6 29,6 10,0 20,-2 29,-6 9,-4 17,-9 24,-16l53 -53 -53 -53c-7,-7 -15,-12 -24,-16 -9,-4 -19,-6 -29,-6 -19,0 -38,7 -53,22zm-81 43l62 -62c10,-10 21,-17 33,-22 12,-5 26,-8 39,-8 13,0 26,3 39,8 12,5 23,12 33,22l71 71 -71 71c-10,10 -21,17 -33,22 -12,5 -26,8 -39,8 -13,0 -26,-3 -39,-8 -12,-5 -23,-12 -33,-22l-71 -71 9 -9z"/>
     <path class="fil0" d="M2060 614l53 53 53 -53c7,-7 12,-15 16,-24 4,-9 6,-19 6,-29 0,-10 -2,-20 -6,-29 -4,-9 -9,-17 -16,-24l-53 -53 -53 53c-7,7 -12,15 -16,24 -4,9 -6,19 -6,29 0,10 2,20 6,29 4,9 9,17 16,24zm43 81l-62 -62c-10,-10 -17,-21 -22,-33 -5,-12 -8,-26 -8,-39 0,-13 3,-26 8,-39 5,-12 12,-23 22,-33l71 -71 71 71c10,10 17,21 22,33 5,12 8,26 8,39 0,13 -3,26 -8,39 -5,12 -12,23 -22,33l-71 71 -9 -9z"/>
    </g>
   </g>
   <path class="fil0" d="M1971 2873l0 -457 -59 0 0 457 59 0zm231 -383l0 -74 -205 0 0 74 72 0 0 383 60 0 0 -383 72 0zm170 309c-14,0 -21,-12 -21,-39l0 -232c0,-26 7,-39 21,-39l48 0c14,0 21,12 21,39l0 27 60 0 0 -48c0,-62 -22,-92 -69,-92l-72 0c-47,0 -69,30 -69,92l0 273c0,62 22,92 69,92l72 0c47,0 69,-30 69,-92l0 -49 -60 0 0 28c0,26 -7,39 -21,39l-48 0zm284 74l46 0 0 -252c0,-52 -18,-77 -56,-77l-60 0c-35,0 -52,26 -52,77l0 27 52 0 0 -6c0,-21 5,-29 17,-29l27 0c11,0 17,8 17,29l0 33 -69 0c-35,0 -52,25 -52,73l0 47c0,53 17,78 52,78l27 0c26,0 36,-6 46,-33l4 33zm-66 -69c-8,0 -13,-5 -13,-25l0 -11c0,-19 5,-30 13,-30l57 0 0 32c0,24 -6,34 -18,34l-39 0zm241 -339l28 0 13 -69 -37 0c-57,0 -76,28 -76,91l0 60 -27 0 -8 69 35 0 0 256 56 0 0 -256 33 0 8 -69 -42 0 0 -49c0,-23 5,-34 17,-34zm115 343c-11,0 -17,-11 -17,-33l0 -29 54 0c53,0 60,-24 60,-80l0 -38c0,-73 -21,-84 -74,-84l-20 0c-53,0 -76,11 -76,84l0 158c0,69 23,87 72,87l24 0c56,0 73,-17 73,-88l0 -15 -52 0 0 11c0,19 -5,28 -17,28l-29 0zm33 -201c10,0 13,9 13,25l0 27c0,16 -5,23 -13,23l-51 0 0 -49c0,-17 4,-26 13,-26l37 0z"/>
  </g>
 </g>
</svg>
