<?xml version="1.0" encoding="UTF-8"?>
<!DOCTYPE svg PUBLIC "-//W3C//DTD SVG 1.0//EN" "http://www.w3.org/TR/2001/REC-SVG-20010904/DTD/svg10.dtd">
<!-- Creator: CorelDRAW 2017 -->
<svg xmlns="http://www.w3.org/2000/svg" xml:space="preserve" width="50.7998mm" height="42.3332mm" version="1.0" style="shape-rendering:geometricPrecision; text-rendering:geometricPrecision; image-rendering:optimizeQuality; fill-rule:evenodd; clip-rule:evenodd"
viewBox="0 0 5080 4233"
 xmlns:xlink="http://www.w3.org/1999/xlink">
 <defs>
  <style type="text/css">
   <![CDATA[
    .fil0 {fill:white}
   ]]>
  </style>
 </defs>
 <g id="Layer_x0020_1">
  <metadata id="CorelCorpID_0Corel-Layer"/>
  <g id="_644372704">
   <path class="fil0" d="M1695 1360c-4,9 -13,21 -18,30 -7,10 -11,18 -18,28l-18 33c-19,35 -31,67 -40,107 -13,55 -3,112 44,144 80,55 248,19 333,-6l75 -23c73,-24 161,-58 229,-91 7,-4 10,-5 18,-8 29,-12 56,-27 84,-40l114 -59c7,-4 10,-6 16,-9 8,-4 10,-4 15,-11l-162 73c-57,25 -114,46 -173,64 -62,18 -126,35 -191,44 -66,9 -187,14 -219,-56 -5,-11 -9,-23 -10,-37 -3,-64 47,-154 83,-203 27,-36 53,-73 83,-107l44 -50c9,-11 20,-20 29,-31 0,0 1,-1 1,-1l4 -5c4,-5 7,-7 12,-12 16,-16 31,-31 47,-47l12 -11c28,-24 68,-67 99,-91 6,-5 7,-6 13,-11 29,-29 132,-109 170,-140 5,-4 9,-6 13,-10 18,-14 35,-27 54,-41 54,-41 110,-81 166,-118l381 -235c106,-63 256,-131 370,-177 7,-3 10,-4 17,-7 13,-4 22,-8 35,-12 46,-15 96,-32 149,-41 52,-9 123,-16 166,5 24,12 37,22 47,47 10,23 8,59 1,85 -8,31 -19,58 -33,84 -32,58 -61,105 -103,158 -19,24 -42,56 -63,78l-115 124c-15,15 -32,34 -47,47l-12 11c-5,4 -7,7 -12,12 -4,4 -7,8 -12,12 -5,5 -8,5 -13,11l-100 90c-9,8 -16,14 -25,22l-157 127c-5,4 -8,6 -13,10 -6,4 -9,8 -14,12 20,-2 128,-89 157,-111 17,-13 33,-28 51,-39 4,-6 25,-24 34,-26 8,-10 29,-24 41,-35l107 -90c4,-3 6,-6 10,-9l56 -50c32,-28 87,-84 116,-113l37 -40c12,-14 26,-26 38,-41l89 -108c61,-77 140,-206 126,-304 -3,-22 -14,-39 -25,-54 -9,-12 -32,-26 -47,-32 -128,-51 -352,21 -484,71l-249 108c-30,14 -165,85 -206,109l-74 42c-39,23 -87,51 -124,75 -61,40 -129,82 -189,125 -8,6 -15,11 -23,16 -8,6 -16,11 -24,17 -56,38 -276,206 -311,240 -5,5 -5,5 -10,9l-177 159c-7,6 -13,13 -19,19 -14,14 -26,26 -40,40l-113 124c-13,15 -23,28 -36,44l-67 90z"/>
   <path class="fil0" d="M3291 949c-8,3 -30,21 -34,26 25,0 44,2 66,2 62,0 176,20 234,42 19,7 30,12 47,22 28,16 56,42 63,76 11,50 -32,106 -64,137 -6,6 -11,11 -17,17 -7,7 -12,10 -19,17 -18,18 -61,46 -79,60 -14,10 -27,18 -41,27 -29,19 -100,59 -133,75 -82,41 -150,74 -236,108 -115,46 -188,71 -306,109 -19,6 -35,11 -54,17l-108 31c-116,29 -211,56 -332,80l-116 23c-40,6 -79,14 -117,20l-154 19c-52,5 -110,11 -162,11 -14,0 -18,2 -32,2 -102,0 -308,-5 -356,-95 -33,-62 30,-142 74,-183l4 -4c20,-17 26,-25 50,-44l144 -100c9,-6 37,-24 46,-26 7,-10 11,-18 18,-28 5,-9 14,-21 18,-30 -11,2 -70,32 -87,40l-28 14c-65,33 -230,127 -286,182l-46 42c0,0 -1,1 -1,1l-17 19c-40,42 -83,119 -52,181 10,20 22,32 38,45 21,18 57,35 84,44 33,11 67,21 103,25 21,3 50,9 73,10 13,1 27,1 40,3 18,3 138,3 168,3 17,0 26,-2 41,-2 56,0 242,-16 312,-28l73 -11c114,-19 243,-43 355,-71 46,-12 91,-22 136,-35 22,-7 44,-12 66,-18l197 -60c110,-37 262,-90 370,-139 20,-9 39,-17 59,-26 10,-5 19,-8 29,-14 10,-5 20,-9 29,-14l84 -42c43,-21 95,-52 137,-77 47,-28 107,-70 149,-105l45 -40c5,-4 6,-4 11,-9 5,-5 5,-7 10,-12 20,-22 40,-40 56,-72 21,-41 37,-83 10,-134 -36,-68 -164,-98 -233,-107 -100,-13 -148,-11 -245,-11 -19,0 -69,5 -81,4z"/>
   <path class="fil0" d="M3223 2406c-8,0 -18,-4 -24,-6 3,-32 46,-114 92,-118l0 101c-18,9 -42,24 -68,24zm122 -47c1,-24 15,-129 15,-152l94 88c-8,2 -21,11 -28,15l-81 49zm-45 -207c-11,6 -22,17 -32,26l-48 53c-23,28 -45,66 -59,99 -19,46 -47,121 14,148 37,16 63,6 90,6 2,5 3,10 5,16 4,10 9,18 18,25l13 7c0,0 1,1 1,1 0,0 1,0 1,1l-502 246 0 86c9,-1 36,-16 46,-20l232 -106c16,-7 31,-15 46,-22l396 -181c10,-5 15,-6 23,-11l0 -128c-8,1 -39,16 -48,20l-48 22c-17,8 -87,41 -98,41 -6,0 -6,-1 -11,-2 0,-30 -1,-20 43,-47l114 -66c25,-23 40,-81 10,-121 -5,-6 -8,-10 -13,-15 -3,-3 -4,-4 -8,-7 -3,-3 -5,-5 -8,-7l-3 -3c-2,-2 -2,-2 -3,-3l-8 -7c-31,-29 -67,-69 -100,-99 0,0 -1,-1 -1,-1 0,0 -1,-1 -1,-1 0,0 -1,-1 -1,-1l-10 -10c0,0 -1,-1 -1,-1l-35 -33c-5,-5 -9,-11 -17,-13l0 111z"/>
   <path class="fil0" d="M1981 2081c0,87 0,174 0,261 0,43 -1,88 0,131l2 62c0,31 4,36 -9,57 -8,12 -18,26 -29,35 -12,10 -28,16 -41,25 -65,41 -207,114 -284,114 -7,0 -21,-8 -25,-11 -36,-29 14,-96 29,-109 8,-8 104,-47 127,-59 33,-16 103,-45 130,-58l0 -98 -278 130c-99,59 -101,212 -55,267 11,12 21,21 36,28 17,9 40,13 62,13 29,0 69,-25 97,-38 5,-3 9,-5 14,-7 34,-15 162,-81 184,-88 49,-16 85,-46 107,-91 24,-48 26,-77 26,-130l0 -473c-9,1 -56,24 -68,30 -8,4 -14,9 -24,11z"/>
   <path class="fil0" d="M2177 2466c-23,0 13,-68 56,-68 17,0 29,-1 46,6 6,2 18,10 21,13 -7,9 -43,26 -55,31 -16,6 -47,19 -67,19zm-77 9c0,123 102,94 177,60 14,-6 29,-14 42,-22 25,-15 20,-21 48,-21 34,0 22,37 17,43l-188 92c-39,20 -89,41 -127,61l0 92c19,-2 246,-111 267,-122 28,-14 57,-30 82,-48 20,-15 16,-36 18,-61 3,-39 1,-12 0,-45 -1,-36 -22,-70 -38,-93l-29 -35c-12,-12 -21,-21 -34,-32 -38,-31 -64,-41 -111,-41 -59,0 -103,56 -116,106 -4,16 -10,47 -10,65z"/>
   <path class="fil0" d="M2639 2701c-17,0 -17,-3 -17,-15 0,-15 23,-42 34,-54l31 -35c4,-4 8,-8 12,-12 8,-8 12,-15 20,-22 17,-17 56,-65 70,-65 14,0 11,4 27,20 9,9 69,59 69,66 0,21 -23,18 -58,36 -11,5 -19,9 -30,14 -42,19 -118,68 -157,68zm-66 -6c0,20 -2,28 6,47 4,10 6,11 13,19 42,42 111,8 156,-10 46,-18 78,-36 120,-60 16,-9 59,-38 70,-50 36,-39 14,-116 -20,-150 -6,-6 -10,-8 -16,-14l-140 -129c-6,-6 -9,-12 -18,-14 0,15 -11,115 -14,118l-40 26c-24,19 -46,44 -63,70 -9,15 -16,26 -24,43 -11,22 -31,74 -31,104z"/>
   <path class="fil0" d="M2986 2091l0 543c0,10 9,4 19,0 19,-8 56,-20 71,-28l0 -567c-9,2 -67,34 -80,42 -5,3 -10,3 -10,10z"/>
   <path class="fil0" d="M2470 2087l0 554c7,-1 15,-5 22,-8 9,-4 15,-5 23,-9 8,-3 13,-5 21,-9 8,-3 16,-6 23,-9l0 -567c-13,3 -33,16 -46,23l-44 24z"/>
  </g>
 </g>
</svg>
