<?xml version="1.0" encoding="UTF-8"?>
<!DOCTYPE svg PUBLIC "-//W3C//DTD SVG 1.0//EN" "http://www.w3.org/TR/2001/REC-SVG-20010904/DTD/svg10.dtd">
<!-- Creator: CorelDRAW 2017 -->
<svg xmlns="http://www.w3.org/2000/svg" xml:space="preserve" width="50.7998mm" height="42.3332mm" version="1.0" style="shape-rendering:geometricPrecision; text-rendering:geometricPrecision; image-rendering:optimizeQuality; fill-rule:evenodd; clip-rule:evenodd"
viewBox="0 0 5080 4233"
 xmlns:xlink="http://www.w3.org/1999/xlink">
 <defs>
  <style type="text/css">
   <![CDATA[
    .fil0 {fill:white;fill-rule:nonzero}
   ]]>
  </style>
 </defs>
 <g id="Layer_x0020_1">
  <metadata id="CorelCorpID_0Corel-Layer"/>
  <path class="fil0" d="M1421 109c316,-2 633,0 949,-1 171,1 342,-1 513,1 -3,17 -6,34 -10,51 -481,1 -962,1 -1443,0 -4,-17 -7,-34 -9,-51zm14 78c34,-2 68,-1 102,-1 412,0 824,0 1237,0 32,0 64,0 95,1 -24,150 -47,300 -71,450 -53,-2 -92,-53 -97,-103 14,-21 34,-38 41,-63 6,-25 8,-51 14,-76 7,-29 23,-55 31,-84 -10,4 -20,8 -28,16 -27,24 -54,50 -76,79 -33,-36 -66,-72 -105,-100 -2,25 16,45 23,68 14,35 10,74 25,109 9,19 24,34 35,53 -3,43 -33,86 -74,100 -40,10 -88,6 -119,-26 -22,-20 -22,-55 -48,-71 -9,44 21,85 57,108 62,39 154,18 188,-48 18,-23 11,-52 13,-78 5,5 12,9 15,15 -2,19 -8,40 4,58 18,39 57,62 97,73 -2,13 -4,25 -5,38 -329,2 -659,0 -988,1 -94,-1 -189,2 -283,-1 -2,-13 -4,-26 -6,-39 33,-15 65,-34 82,-67 14,-20 10,-44 5,-66 6,-3 11,-7 17,-10 -1,23 -5,48 8,68 21,45 69,77 119,75 67,5 136,-55 131,-124 -4,1 -12,4 -16,6 -11,39 -36,78 -77,90 -33,6 -71,8 -99,-13 -31,-21 -48,-58 -52,-95 16,-12 30,-26 37,-45 15,-33 11,-71 23,-104 8,-24 21,-46 28,-71 -9,4 -19,8 -26,15 -29,26 -57,54 -83,83 -29,-36 -60,-72 -101,-95 5,29 21,55 29,84 7,27 8,55 16,82 7,23 27,39 39,59 -5,47 -38,90 -84,103 -24,-150 -50,-300 -72,-450zm166 51c-6,26 -1,53 -2,80 -9,-18 -11,-40 -24,-55 -5,0 -16,-1 -22,-1 -1,31 22,53 40,75 7,-3 14,-7 21,-10 5,-25 13,-49 12,-74 0,-13 -16,-11 -25,-15zm262 14c1,26 7,52 7,78 4,0 12,0 16,1 -1,-26 5,-52 6,-79 0,-17 -27,-17 -28,0zm270 -12c-8,29 0,59 6,87 7,3 14,6 21,9 19,-20 41,-43 41,-73 -6,0 -18,-1 -24,-1 -8,20 -15,41 -24,62 1,-27 3,-55 3,-82 -8,-1 -16,-1 -24,-2zm270 -1c-10,30 5,61 4,91 11,0 24,8 32,-2 16,-18 29,-39 34,-62 -6,-1 -17,-4 -23,-6 -13,20 -18,43 -28,65 -2,-24 4,-48 5,-72 -1,-13 -16,-11 -25,-14zm264 4c-2,29 5,57 11,85 7,4 14,7 21,11 18,-21 37,-44 43,-72 -7,-3 -14,-6 -21,-8 -14,18 -19,40 -29,61 -2,-27 5,-54 -1,-80 -8,1 -16,2 -24,3zm-1044 92c25,-14 41,-42 45,-70 -6,-1 -18,-2 -24,-3 -11,23 -21,47 -21,73zm194 -69c9,27 22,58 49,71 -4,-27 -10,-54 -26,-77 -6,1 -17,4 -23,5zm90 4c-11,21 -16,44 -20,67 27,-15 43,-44 49,-73 -9,1 -24,-6 -29,6zm178 -5c5,28 20,56 45,70 1,-26 -10,-50 -21,-73 -6,1 -17,2 -23,3zm269 -1c6,27 18,63 48,70 -4,-22 -9,-43 -19,-63 -4,-12 -20,-5 -29,-7zm268 1c5,28 20,56 45,70 0,-26 -9,-51 -21,-74 -6,1 -18,2 -24,3zm-1097 11c-4,7 -9,15 -13,22 20,23 43,44 71,57 -13,-30 -30,-61 -58,-79zm155 5c-16,24 -36,46 -43,75 23,-16 47,-32 64,-54 0,-7 1,-14 0,-22 -7,0 -15,0 -22,1zm101 -1c0,12 3,24 8,34 -7,0 -13,0 -20,0 11,28 25,54 32,83 5,25 6,52 14,77 6,24 24,42 39,60 13,-3 26,-3 38,0 13,-12 27,-25 35,-42 14,-29 14,-62 21,-93 7,-30 23,-56 31,-85 -44,19 -72,61 -105,94 -26,-32 -60,-57 -84,-90 18,11 34,25 50,37 0,-4 0,-11 0,-15 -11,-20 -24,-40 -40,-56 -7,-1 -14,-2 -21,-2zm167 1c-17,22 -34,44 -44,70 25,-9 45,-26 62,-46 7,-7 0,-17 -1,-25 -4,0 -13,1 -17,1zm102 -1c-1,4 -2,13 -3,17 5,7 9,13 14,20 -9,-2 -18,-4 -26,-6 13,32 30,63 37,97 5,23 3,48 13,70 9,23 28,40 37,63 -6,42 -34,80 -74,94 -36,8 -78,8 -107,-18 -28,-20 -35,-55 -52,-83 -5,12 -11,25 -6,38 13,42 49,77 91,89 38,8 81,5 113,-19 28,-17 41,-49 58,-75 15,29 30,60 59,77 31,22 72,25 108,19 43,-10 79,-43 94,-84 5,-18 1,-36 1,-54 10,4 23,15 31,3 33,-26 41,-70 46,-109 4,-37 23,-70 36,-104 -7,1 -14,2 -21,2 3,-8 7,-15 10,-23 -2,-3 -5,-9 -7,-12 -4,0 -11,-1 -15,-1 -18,21 -35,44 -44,70 19,-9 35,-22 53,-34 -5,13 -16,22 -26,31 -20,18 -39,38 -57,59 -23,-27 -50,-49 -72,-78 15,9 29,18 43,27 -8,-29 -28,-51 -45,-75 -7,0 -15,0 -22,-1 1,13 4,26 10,38 -8,-4 -17,-8 -25,-12 9,28 25,54 33,82 10,32 7,68 23,99 8,18 25,31 34,50 -5,48 -43,97 -93,102 -28,3 -59,2 -83,-15 -30,-17 -46,-51 -54,-83 -2,-13 12,-20 18,-29 24,-24 28,-60 32,-92 4,-38 22,-73 37,-108 -7,1 -14,2 -21,2 4,-8 8,-16 12,-24 -7,-4 -13,-13 -22,-10 -23,19 -38,46 -49,74 19,-12 37,-26 54,-39 0,3 0,8 1,10 -31,22 -58,49 -80,80 -26,-31 -57,-56 -82,-87 19,11 36,25 54,37 -8,-29 -28,-51 -45,-75 -7,0 -14,-1 -20,-1zm537 0c0,7 0,15 0,22 18,22 42,39 65,54 -7,-29 -29,-50 -44,-75 -7,0 -14,-1 -22,-1zm120 75c26,-15 50,-34 70,-57 -4,-7 -9,-15 -13,-22 -28,18 -44,49 -57,79zm-1125 0c7,14 16,26 29,35 7,-9 15,-17 20,-27 -3,-8 -6,-16 -13,-21 -14,-4 -25,7 -36,14zm280 -16c-2,9 -9,19 -7,29 6,9 14,16 21,24 8,-11 22,-21 22,-36 -5,-16 -22,-16 -36,-17zm254 23c8,9 16,18 23,27 10,-8 19,-17 29,-26 -9,-9 -14,-27 -30,-21 -11,1 -15,14 -22,21zm281 -16c-17,14 2,32 11,44 10,-9 20,-18 29,-27 -7,-14 -25,-32 -40,-17zm266 3c-14,15 6,29 14,40 10,-9 19,-18 28,-28 -9,-14 -30,-33 -43,-13zm-1139 385c12,-1 25,-2 37,-2 357,0 713,0 1070,0 49,1 98,-2 146,2 1,5 2,14 2,18 -419,1 -838,0 -1258,0 1,-5 2,-14 2,-19zm1 35c417,0 834,0 1252,0 -50,312 -98,625 -148,937 -24,117 -35,242 5,358 24,74 80,139 153,167 56,22 110,54 148,101 21,26 37,59 34,93 -1,32 -26,60 -56,69 -31,6 -64,6 -93,-7 -73,-27 -159,-41 -231,-2 -46,22 -78,74 -70,126 12,80 84,146 164,156 350,0 699,0 1049,0 0,21 0,42 0,62 -117,4 -233,1 -350,2 -678,0 -1356,1 -2033,-1 -1,-21 -1,-42 1,-63 293,0 586,0 879,0 34,0 67,2 100,-4 -6,-4 -13,-6 -19,-8 -149,-19 -285,-101 -379,-217 -104,-128 -160,-287 -192,-447 -72,-440 -141,-881 -213,-1322zm550 362c0,57 -3,115 -1,172 27,-6 55,-9 82,-12 18,-47 33,-95 51,-142 6,-14 9,-32 -3,-44 -21,-19 -52,-16 -78,-15 -24,0 -53,14 -50,42zm-147 27c-11,14 -7,33 1,48 21,42 41,86 62,128 24,-8 47,-21 70,-31 -2,-56 0,-113 -4,-169 -4,-25 -34,-19 -52,-17 -28,7 -58,19 -77,42zm320 -40c-16,7 -20,25 -26,40 -15,44 -34,87 -48,132 24,6 48,12 73,16 29,-30 51,-65 79,-97 13,-16 29,-34 21,-56 -17,-34 -64,-51 -98,-35zm105 86c-31,34 -58,72 -87,107 16,16 31,32 45,49 36,-19 72,-38 108,-58 20,-11 39,-32 36,-56 -7,-25 -24,-47 -46,-60 -20,-8 -43,2 -56,17zm-509 16c-23,20 -30,52 -31,81 38,36 79,67 117,103 17,-19 33,-38 50,-57 -17,-51 -45,-97 -67,-146 -23,1 -48,4 -68,19zm-107 176c17,17 40,25 61,35 34,14 65,36 101,45 8,-19 16,-39 23,-58 -29,-27 -60,-52 -90,-78 -14,-11 -28,-26 -46,-29 -42,-6 -68,52 -49,85zm318 -62c-25,12 -22,44 -13,65 15,35 40,67 72,86 20,-2 37,-13 56,-19 -2,-34 -18,-65 -17,-99 0,-16 -1,-33 -3,-49 -32,1 -66,4 -96,17zm120 -8c-3,46 -9,100 22,139 21,4 43,1 65,1 2,-33 12,-64 27,-92 -24,-37 -72,-51 -114,-47zm-239 114c-8,23 15,42 31,54 32,21 67,42 107,42 11,-11 19,-24 28,-36 -20,-21 -43,-39 -59,-63 -15,-22 -27,-45 -40,-68 -34,9 -55,41 -68,71zm-211 -6c-19,12 -24,36 -27,57 -2,14 -1,32 13,40 38,15 81,14 120,23 20,4 40,7 60,10 1,-22 2,-45 3,-67 -40,-19 -80,-37 -121,-54 -15,-6 -32,-14 -49,-9zm200 47c-12,35 -10,72 -3,108 4,16 11,34 27,43 42,5 83,-7 124,-8 -1,-24 -1,-48 -1,-72 -54,-11 -110,-29 -148,-71zm205 32c-29,22 -38,62 -30,97 5,23 21,42 37,59 29,31 55,64 85,95 108,113 215,233 274,380 43,109 53,229 52,345 21,-14 43,-30 68,-36 35,-11 73,-8 109,-4 -24,-55 -34,-114 -51,-171 -37,-119 -79,-237 -141,-345 -74,-117 -167,-221 -235,-342 -18,-32 -29,-69 -37,-105 -45,-5 -94,-1 -132,27zm-399 62c-19,18 -18,48 -14,72 6,21 32,19 49,20 54,-2 108,-2 161,-2 -13,-27 -28,-54 -36,-84 -37,-7 -75,-9 -113,-12 -16,-1 -33,-3 -48,5zm241 75c-23,29 12,75 46,66 36,-4 71,-16 106,-21 -15,-19 -30,-39 -47,-57 -36,-4 -70,10 -106,12zm-142 36c-26,2 -53,1 -76,14 -11,3 -10,16 -9,26 5,20 19,37 37,48 65,-5 128,-23 190,-41 -16,-18 -27,-39 -41,-58 -34,-1 -67,9 -101,12zm202 43c-10,3 -24,9 -22,22 1,29 31,57 61,47 39,-10 78,-18 115,-33 -14,-20 -30,-38 -47,-56 -36,4 -71,13 -107,20zm-178 53c-17,6 -38,6 -49,22 -4,21 10,43 27,53 15,12 34,0 50,-3 46,-15 93,-27 139,-41 -20,-15 -35,-36 -42,-61 -43,6 -84,21 -126,30zm254 22c-13,4 -33,9 -32,26 -4,21 14,40 32,47 19,1 36,-8 54,-12 31,-9 63,-14 92,-28 -18,-18 -31,-41 -53,-53 -32,2 -62,13 -93,20zm-185 57c-18,5 -39,6 -51,21 -10,28 16,63 46,54 55,-15 111,-31 165,-49 -23,-12 -33,-36 -37,-61 -42,9 -82,22 -123,34zm226 23c-20,15 -11,48 8,60 18,7 38,2 56,-3 34,-10 67,-21 101,-30 -14,-22 -31,-41 -50,-58 -38,11 -77,20 -115,31zm-196 60c-26,4 -25,38 -11,54 12,18 37,13 54,9 48,-14 96,-28 144,-42 -16,-17 -28,-39 -36,-61 -51,9 -101,27 -151,40zm249 19c-11,20 -4,51 19,59 16,6 33,-1 48,-5 35,-12 70,-19 104,-34 -15,-20 -31,-39 -49,-57 -41,9 -83,20 -122,36zm-208 62c0,17 -6,36 6,50 12,17 35,12 53,8 49,-14 98,-30 147,-43 -19,-17 -31,-40 -43,-62 -55,13 -109,31 -164,47zm260 11c-6,21 -6,46 14,60 20,7 41,2 60,-6 31,-12 64,-17 93,-31 -11,-22 -24,-42 -38,-62 -44,12 -86,27 -130,39zm-204 64c-11,21 -4,50 19,61 22,5 42,-6 63,-11 39,-13 80,-21 118,-37 -18,-18 -27,-41 -25,-66 -58,19 -117,32 -174,53zm257 13c-25,13 -12,47 6,60 20,9 42,2 61,-5 26,-10 54,-16 80,-25 1,-2 4,-6 6,-9 -5,-22 -18,-41 -29,-61 -41,14 -83,24 -124,39zm-187 56c-10,4 -24,6 -29,17 -9,18 3,38 17,49 14,8 30,3 45,0 48,-15 96,-28 143,-42 -17,-19 -30,-42 -29,-69 -49,17 -98,30 -148,45zm242 18c-13,4 -32,9 -30,26 -5,28 26,57 54,45 35,-11 69,-22 104,-33 -3,-24 -10,-46 -20,-68 -37,7 -71,21 -107,31zm-217 66c-28,7 -22,50 0,62 17,8 37,2 55,-2 46,-14 93,-28 139,-41 -10,-9 -21,-16 -28,-27 -5,-12 -5,-25 -8,-37 -53,13 -105,31 -158,45zm220 28c-18,24 3,68 34,62 37,-5 72,-22 109,-30 -3,-24 -9,-48 -14,-72 -43,15 -87,24 -129,41zm-182 54c-11,5 -27,6 -29,20 -5,21 9,52 34,51 22,-1 43,-9 64,-15 35,-12 72,-19 106,-34 -17,-18 -28,-41 -27,-66 -49,16 -99,30 -148,44zm222 24c-10,4 -24,8 -24,21 -7,27 21,58 49,48 30,-8 59,-20 89,-29 -2,-24 -6,-48 -10,-72 -34,12 -69,21 -104,31zm-197 60c-13,5 -34,7 -33,25 -4,21 11,40 28,49 15,2 30,-5 44,-9 46,-15 92,-26 138,-41 -22,-15 -33,-38 -33,-64 -49,11 -95,29 -144,41zm199 32c-38,12 -11,76 24,69 30,-7 58,-20 87,-28 1,-25 1,-50 1,-75 -37,11 -75,21 -112,34zm-152 46c-24,7 -50,12 -72,25 2,15 -2,33 9,45 9,9 23,19 37,13 56,-16 113,-33 169,-50 -9,-6 -20,-12 -27,-21 -7,-13 -8,-28 -11,-42 -36,8 -70,20 -105,29zm154 45c-30,13 -13,56 12,65 21,5 41,-5 60,-11 8,-4 20,-7 22,-17 5,-23 9,-47 17,-70 -36,13 -75,19 -111,34zm-204 61c-35,14 -11,68 21,68 12,0 23,-5 34,-8 46,-15 94,-25 139,-43 -23,-13 -32,-37 -33,-62 -54,13 -107,31 -160,45zm742 -1156c55,-36 123,-45 187,-38 24,3 47,12 66,26 -19,11 -31,28 -43,46 -24,5 -27,-32 -49,-36 -29,-5 -57,5 -83,17 -19,10 -39,27 -36,51 5,32 25,60 53,75 8,4 20,13 8,21 -31,29 -60,69 -47,113 6,21 30,17 47,21 -1,5 -1,10 -2,16 -14,7 -27,15 -40,24 6,27 29,42 51,55 -14,1 -29,3 -43,4 2,14 1,31 13,42 13,17 35,21 55,24 -10,8 -28,13 -28,29 13,30 52,21 78,24 -6,10 -13,20 -19,30 24,7 49,8 74,12 17,143 26,286 43,429 3,43 5,86 14,128 -39,-15 -80,-26 -122,-28 -43,-10 -87,-10 -131,-12 14,-46 22,-95 8,-142 -14,-48 -48,-89 -91,-114 -72,-45 -163,-59 -222,-124 -39,-39 -51,-97 -52,-150 3,-124 50,-244 118,-346 51,-75 113,-145 189,-195zm267 10c17,-10 38,-3 51,10 34,32 85,48 103,94 -28,-19 -56,-37 -86,-54 -21,-17 -50,-20 -75,-11 -34,20 -48,58 -77,83 -19,10 -43,9 -63,2 -28,-16 -50,-46 -53,-78 16,-21 41,-39 69,-35 28,-1 43,25 59,44 28,-13 46,-38 70,-55zm-52 153c1,-43 33,-97 82,-91 15,-1 22,14 31,24 31,1 64,8 80,37 -26,3 -54,4 -75,20 -23,15 -36,42 -59,57 -28,10 -63,-16 -58,-47zm28 22c19,13 37,-4 51,-17 -11,-5 -24,-7 -34,-16 -7,-11 -10,-29 -1,-40 11,-14 36,-8 45,-26 -50,-9 -88,58 -61,98zm32 -63c-8,17 13,30 27,32 25,-10 48,-24 72,-36 -17,-4 -35,-5 -53,-3 -6,13 -12,29 -28,29 0,-11 -1,-23 -1,-34 -6,4 -14,6 -17,13zm-183 86c22,-31 58,-50 94,-59 -17,90 -3,187 47,264 19,30 48,52 73,77 -17,24 -44,39 -74,42 -2,-2 -7,-6 -10,-8 5,-15 12,-30 17,-44 -28,5 -55,12 -84,13 14,-22 36,-42 34,-71 -24,9 -51,14 -76,7 19,-19 47,-34 50,-63 -23,-2 -45,-6 -67,-10 20,-26 46,-50 45,-85 -20,1 -41,1 -61,-4 1,-19 0,-41 12,-57zm264 -49c22,-11 47,-8 70,-6 -26,8 -56,4 -77,24 -30,26 -19,73 -47,101 -15,19 -41,17 -62,14 1,-14 -4,-32 7,-44 16,-18 38,-30 56,-46 18,-14 33,-32 53,-42zm40 12c45,-18 87,14 131,18 -2,20 -6,40 -13,59 -21,-14 -29,-40 -49,-56 -19,-16 -45,-16 -68,-22zm-16 43c22,-18 60,-20 80,3 16,17 21,39 26,61 -28,6 -56,14 -83,22 -32,10 -65,7 -98,9 29,-29 42,-70 75,-95zm29 107c31,-4 57,-21 86,-30 -10,30 -27,58 -49,81 -11,-12 -21,-30 -40,-28 -39,-2 -82,-4 -115,18 -25,20 -12,63 18,70 23,4 48,6 72,0 21,-13 35,-35 57,-47 -12,25 -32,46 -38,74 -5,14 -5,30 -15,41 -14,17 -40,14 -58,7 -9,-13 -10,-29 -17,-43 -17,-15 -39,-25 -49,-46 -14,-23 -10,-58 15,-72 41,-24 90,-14 135,-25zm-103 53c28,-16 62,-14 92,-6 13,2 5,18 6,26 -31,-15 -64,-19 -98,-20zm-605 699c56,-29 123,-14 181,4 34,12 71,8 106,13 51,10 104,7 155,18 50,2 101,9 148,26 36,14 76,16 114,14 30,1 53,-26 83,-27 19,-3 36,14 55,12 13,0 28,-3 38,7 10,14 16,31 26,45 17,13 42,15 55,35 14,22 26,45 35,70 -6,0 -17,1 -22,1 -30,-34 -61,-67 -89,-103 -8,-10 -17,-19 -27,-27 2,16 7,31 13,46 -18,-16 -34,-34 -51,-51 -9,-10 -23,-6 -34,-8 -4,32 32,48 31,79 -31,-2 -55,-24 -84,-34 -35,-12 -73,-15 -111,-15 -27,1 -50,-15 -75,-22 -54,-15 -109,-21 -164,-23 -61,-10 -122,-4 -183,-7 -44,-1 -84,-22 -127,-23 -24,3 -49,8 -67,26 -24,27 -18,70 5,96 21,24 53,33 83,38 61,6 122,0 184,1 62,2 124,-10 186,-9 44,-2 88,0 132,2 -2,-3 -5,-10 -7,-14 -33,-15 -70,-16 -106,-17 -100,-2 -200,-2 -301,-1 -34,0 -75,9 -101,-18 -15,-12 -19,-39 -4,-52 42,-14 86,-3 129,1 64,13 131,5 195,17 56,6 111,16 166,29 72,16 154,5 215,54 18,17 40,25 64,23 1,-17 2,-34 4,-51 21,5 41,13 61,20 25,9 39,33 48,56 -285,4 -570,0 -855,-1 -46,-5 -96,-13 -132,-45 -33,-28 -45,-78 -33,-119 9,-31 36,-51 64,-64z"/>
 </g>
</svg>
