<?xml version="1.0" encoding="UTF-8"?>
<!DOCTYPE svg PUBLIC "-//W3C//DTD SVG 1.0//EN" "http://www.w3.org/TR/2001/REC-SVG-20010904/DTD/svg10.dtd">
<!-- Creator: CorelDRAW 2017 -->
<svg xmlns="http://www.w3.org/2000/svg" xml:space="preserve" width="50.7998mm" height="42.3332mm" version="1.0" style="shape-rendering:geometricPrecision; text-rendering:geometricPrecision; image-rendering:optimizeQuality; fill-rule:evenodd; clip-rule:evenodd"
viewBox="0 0 5080 4233"
 xmlns:xlink="http://www.w3.org/1999/xlink">
 <defs>
  <style type="text/css">
   <![CDATA[
    .fil0 {fill:white;fill-rule:nonzero}
   ]]>
  </style>
 </defs>
 <g id="Layer_x0020_1">
  <metadata id="CorelCorpID_0Corel-Layer"/>
  <g id="_641894848">
   <path class="fil0" d="M878 1586c5,13 4,30 1,40 -4,18 -17,37 -54,37 -34,0 -55,-20 -55,-50l0 -53 -147 0 0 42c0,123 96,159 199,159 99,0 180,-34 194,-125 7,-47 2,-78 -1,-90 -23,-115 -231,-149 -247,-213 -3,-11 -2,-23 -1,-29 4,-17 16,-37 50,-37 32,0 51,20 51,50 0,10 0,34 0,34l137 0 0 -38c0,-119 -107,-138 -185,-138 -97,0 -177,32 -191,122 -4,25 -5,46 1,74 24,112 218,144 247,215z"/>
   <path class="fil0" d="M2659 1585c5,13 4,30 1,40 -4,18 -16,37 -53,37 -34,0 -55,-20 -55,-49l0 -53 -145 0 0 42c0,121 95,158 197,158 98,0 179,-33 192,-124 6,-47 2,-77 -1,-89 -23,-114 -228,-148 -244,-211 -2,-11 -2,-22 0,-28 4,-18 16,-37 50,-37 32,0 50,20 50,49 0,10 0,33 0,33l135 0 0 -38c0,-118 -106,-137 -182,-137 -97,0 -175,32 -190,121 -4,24 -5,46 1,73 23,111 216,143 244,213z"/>
   <polygon class="fil0" points="3795,1634 3788,1192 3923,1192 3923,1735 3728,1735 3590,1279 3598,1735 3463,1735 3463,1192 3666,1192 "/>
   <polygon class="fil0" points="1333,1233 1257,1740 1109,1740 1210,1192 1454,1192 1555,1740 1408,1740 "/>
   <polygon class="fil0" points="2132,1233 2038,1740 1899,1740 1805,1233 1801,1740 1664,1740 1676,1192 1900,1192 1969,1621 1969,1621 2038,1192 2261,1192 2273,1740 2136,1740 "/>
   <path class="fil0" d="M3119 1658c38,0 50,-26 53,-40 1,-6 1,-14 1,-21l0 -405 139 0 0 393c1,10 0,31 -1,36 -10,102 -90,136 -191,136 -101,0 -181,-33 -191,-136 -1,-5 -1,-26 -1,-36l0 -393 139 0 0 405c0,7 0,15 1,21 3,14 15,40 52,40z"/>
   <path class="fil0" d="M4261 1653c40,0 54,-25 56,-40 1,-6 2,-14 1,-21l0 -79 -56 0 0 -80 194 0 0 147c0,10 0,18 -2,36 -9,100 -95,135 -193,135 -97,0 -184,-35 -193,-135 -2,-18 -2,-26 -2,-36l0 -230c0,-10 2,-27 3,-36 12,-102 95,-135 192,-135 97,0 182,33 192,135 2,18 1,36 1,36l0 18 -138 0 0 -30c0,0 0,-13 -2,-21 -2,-12 -13,-40 -55,-40 -40,0 -52,26 -54,40 -2,7 -3,17 -3,26l0 250c0,7 0,15 1,21 2,15 16,40 56,40z"/>
  </g>
 </g>
</svg>
