<?xml version="1.0" encoding="UTF-8"?>
<!DOCTYPE svg PUBLIC "-//W3C//DTD SVG 1.0//EN" "http://www.w3.org/TR/2001/REC-SVG-20010904/DTD/svg10.dtd">
<!-- Creator: CorelDRAW 2017 -->
<svg xmlns="http://www.w3.org/2000/svg" xml:space="preserve" width="50.7998mm" height="42.3332mm" version="1.0" style="shape-rendering:geometricPrecision; text-rendering:geometricPrecision; image-rendering:optimizeQuality; fill-rule:evenodd; clip-rule:evenodd"
viewBox="0 0 5080 4233"
 xmlns:xlink="http://www.w3.org/1999/xlink">
 <defs>
  <style type="text/css">
   <![CDATA[
    .fil0 {fill:white}
   ]]>
  </style>
 </defs>
 <g id="Layer_x0020_1">
  <metadata id="CorelCorpID_0Corel-Layer"/>
  <g id="_641934528">
   <path class="fil0" d="M4263 1300c0,-69 -132,-31 -158,12 -29,48 -34,112 -68,157 -1,1 -3,3 -4,5 -1,-2 -3,-7 -3,-6 0,1 -3,-4 -3,-6 -32,-84 11,-223 -128,-195 -102,20 -82,152 -130,216 -27,-51 -14,-150 -49,-211 -157,-41 -157,84 -241,282 -22,53 -31,82 -103,77 6,-57 83,-274 107,-330 37,-85 177,-266 140,-294 -100,-78 -168,29 -200,115 -33,88 -186,526 -156,566 12,13 2,10 26,16l144 3c191,-3 172,-180 237,-290 24,-40 -1,-13 30,-29 34,178 -36,311 66,318 118,8 86,-109 183,-324 58,43 1,255 30,300 115,85 137,-53 167,-138 24,-67 76,-197 113,-245z"/>
   <path class="fil0" d="M1779 1118c-41,112 -174,502 -158,582 38,13 129,10 179,8 69,-2 103,-22 132,-62 46,-64 72,-223 123,-261 32,105 -11,228 23,310 120,40 129,-15 156,-104 22,-72 46,-148 75,-206 3,2 4,-10 17,21 39,86 -55,312 78,302 29,-2 44,-9 57,-36 15,-30 60,-173 99,-259 21,-47 54,-84 51,-139 -197,-52 -156,130 -223,211 -47,-75 19,-238 -125,-217 -115,17 -84,150 -139,218 -28,-57 -12,-149 -49,-212 -144,-31 -150,53 -189,155 -49,132 -64,210 -156,204 17,-142 120,-364 201,-492 137,-218 -84,-207 -152,-23z"/>
   <path class="fil0" d="M1107 1042c-47,71 -220,597 -192,640 15,23 246,69 312,-34 33,-51 81,-246 121,-271 53,60 -2,244 33,315 150,48 102,-63 252,-355 56,-110 -104,-92 -143,-15 -14,28 -22,54 -31,80 -10,27 -15,50 -34,72 -17,-28 -16,-45 -25,-106 -5,-32 -6,-70 -31,-89 -25,-20 -111,-39 -155,58 -73,161 -83,304 -191,295 8,-119 115,-356 186,-472 144,-238 -50,-197 -101,-119z"/>
   <path class="fil0" d="M2976 1121c-23,59 -41,115 -61,177 -132,419 -154,427 119,408 120,-8 125,-132 187,-272l58 -121c18,-87 -120,-39 -141,-11 -20,26 -38,82 -55,124 -50,129 -61,211 -154,209 3,-62 90,-301 117,-355 22,-43 125,-207 129,-229 18,-92 -133,-106 -201,72z"/>
   <path class="fil0" d="M2544 1907c29,-21 45,-41 66,-70 63,-85 106,-258 157,-379 13,-32 26,-60 44,-93 5,-10 20,-34 24,-46 29,-91 -113,-44 -123,-36 -38,28 -107,243 -125,293 -24,67 -48,141 -79,203 -56,112 -79,99 -128,144 7,78 129,9 163,-15z"/>
   <path class="fil0" d="M3256 1049c-109,44 -39,203 70,157 93,-39 45,-203 -70,-157z"/>
   <path class="fil0" d="M2805 1050c-108,48 -35,200 69,157 101,-42 41,-206 -69,-157z"/>
   <path class="fil0" d="M1611 1050c-107,45 -39,202 70,157 96,-39 43,-204 -70,-157z"/>
   <path class="fil0" d="M1020 1791c-108,48 -35,200 69,157 101,-42 41,-206 -69,-157z"/>
   <path class="fil0" d="M870 1791c-108,48 -35,200 69,157 101,-42 41,-206 -69,-157z"/>
  </g>
 </g>
</svg>
