<?xml version="1.0" encoding="UTF-8"?>
<!DOCTYPE svg PUBLIC "-//W3C//DTD SVG 1.0//EN" "http://www.w3.org/TR/2001/REC-SVG-20010904/DTD/svg10.dtd">
<!-- Creator: CorelDRAW 2017 -->
<svg xmlns="http://www.w3.org/2000/svg" xml:space="preserve" width="50.7998mm" height="42.3332mm" version="1.0" style="shape-rendering:geometricPrecision; text-rendering:geometricPrecision; image-rendering:optimizeQuality; fill-rule:evenodd; clip-rule:evenodd"
viewBox="0 0 5080 4233"
 xmlns:xlink="http://www.w3.org/1999/xlink">
 <defs>
  <style type="text/css">
   <![CDATA[
    .fil0 {fill:white}
    .fil1 {fill:white;fill-rule:nonzero}
   ]]>
  </style>
 </defs>
 <g id="Layer_x0020_1">
  <metadata id="CorelCorpID_0Corel-Layer"/>
  <g id="_197565152">
   <path class="fil0" d="M2631 627c-53,87 -232,272 -309,344 -26,25 -65,55 -95,70 -82,41 -270,134 -350,143 65,-50 172,-120 227,-173l130 -121c125,-120 103,-126 277,-214 39,-20 75,-36 110,-54l29 -15c-9,14 -6,11 -18,20zm-1125 -349l1 512c12,-9 26,-15 38,-25 16,-13 28,-19 42,-31 45,-37 123,-100 157,-137 39,-42 145,-154 190,-178l142 -79c28,-14 76,-42 106,-44 -6,55 -277,334 -321,368 -169,131 -248,121 -353,185l-1 175c63,35 161,11 224,-10 -9,-18 -25,-24 -38,-65 -8,-25 -6,-76 5,-98 23,-46 82,-65 132,-89 54,-26 155,-99 232,3 80,108 -92,273 -191,332 -107,63 -214,83 -365,74l1 185c37,-9 183,-82 220,-102l62 -20c96,-9 144,115 216,194 31,34 52,57 78,88 291,346 868,604 1313,656 48,6 94,-22 114,-49 33,-44 24,-83 24,-140l0 -1637c0,-69 14,-200 -127,-200l-1778 0c-70,0 -122,58 -122,133z"/>
   <path class="fil0" d="M1509 1511c1,146 -1,295 -1,441 0,83 -10,131 38,181 45,48 111,38 187,38 319,0 667,5 981,0l34 -1c-7,-14 -128,-56 -151,-65 -349,-139 -535,-311 -792,-556 -31,-30 -86,-89 -106,-120 -17,2 -176,69 -190,82z"/>
   <path class="fil1" d="M1657 2424c27,0 51,4 72,11 20,7 39,19 55,34l-40 45c-25,-20 -52,-29 -80,-29 -15,0 -27,3 -36,9 -9,6 -13,14 -13,26 0,8 2,14 6,19 4,5 11,10 21,14 10,4 25,10 44,16 37,11 65,26 82,42 18,17 26,40 26,71 0,22 -6,41 -17,58 -12,17 -28,30 -50,39 -22,9 -48,14 -78,14 -30,0 -56,-5 -79,-14 -23,-9 -43,-21 -59,-36l44 -46c14,11 29,20 44,26 15,6 31,9 49,9 18,0 32,-4 43,-11 10,-8 16,-18 16,-32 0,-9 -2,-16 -6,-22 -4,-6 -11,-11 -20,-16 -10,-5 -23,-10 -41,-15 -40,-12 -69,-26 -86,-43 -17,-17 -26,-39 -26,-65 0,-20 6,-38 17,-53 11,-15 27,-27 47,-35 20,-8 43,-12 68,-12zm412 359l-19 -75 -107 0 -18 75 -90 0 110 -350 105 0 110 350 -92 0zm-111 -135l77 0 -39 -155 -39 155zm388 2l-34 0 0 134 -87 0 0 -350 120 0c50,0 88,9 113,26 25,18 38,44 38,80 0,23 -6,41 -17,56 -11,15 -29,28 -53,38l93 149 -98 0 -75 -134zm-34 -57l36 0c19,0 34,-4 44,-13 10,-8 15,-22 15,-40 0,-17 -5,-29 -16,-37 -10,-8 -26,-12 -48,-12l-31 0 0 101zm469 191l-19 -75 -107 0 -18 75 -90 0 110 -350 105 0 110 350 -92 0zm-111 -135l77 0 -39 -155 -39 155zm532 -215l-102 350 -108 0 -106 -350 91 0 70 285 65 -285 89 0zm248 350l-19 -75 -107 0 -18 75 -90 0 110 -350 105 0 110 350 -92 0zm-111 -135l77 0 -39 -155 -39 155z"/>
  </g>
 </g>
</svg>
