<?xml version="1.0" encoding="UTF-8"?>
<!DOCTYPE svg PUBLIC "-//W3C//DTD SVG 1.0//EN" "http://www.w3.org/TR/2001/REC-SVG-20010904/DTD/svg10.dtd">
<!-- Creator: CorelDRAW 2017 -->
<svg xmlns="http://www.w3.org/2000/svg" xml:space="preserve" width="50.7998mm" height="42.3332mm" version="1.0" style="shape-rendering:geometricPrecision; text-rendering:geometricPrecision; image-rendering:optimizeQuality; fill-rule:evenodd; clip-rule:evenodd"
viewBox="0 0 5080 4233"
 xmlns:xlink="http://www.w3.org/1999/xlink">
 <defs>
  <style type="text/css">
   <![CDATA[
    .fil1 {fill:white}
    .fil0 {fill:white;fill-rule:nonzero}
   ]]>
  </style>
 </defs>
 <g id="Layer_x0020_1">
  <metadata id="CorelCorpID_0Corel-Layer"/>
  <g id="_643403016">
   <path class="fil0" d="M3178 1896c0,0 -1323,-57 -1733,901l68 -901c0,0 467,-843 1665,-797l0 798z"/>
   <path class="fil0" d="M3110 2409c0,-214 -174,-388 -388,-388 -214,0 -388,174 -388,388 0,214 174,388 388,388 214,0 388,-174 388,-388z"/>
   <path class="fil1" d="M3635 981l0 -841c-467,992 -1699,878 -1699,878l0 365c275,-191 682,-362 1245,-340l54 2 0 382c260,-219 401,-446 401,-446z"/>
  </g>
 </g>
</svg>
