<?xml version="1.0" encoding="UTF-8"?>
<!DOCTYPE svg PUBLIC "-//W3C//DTD SVG 1.0//EN" "http://www.w3.org/TR/2001/REC-SVG-20010904/DTD/svg10.dtd">
<!-- Creator: CorelDRAW 2017 -->
<svg xmlns="http://www.w3.org/2000/svg" xml:space="preserve" width="5mm" height="4mm" version="1.0" style="shape-rendering:geometricPrecision; text-rendering:geometricPrecision; image-rendering:optimizeQuality; fill-rule:evenodd; clip-rule:evenodd"
viewBox="0 0 500 400"
 xmlns:xlink="http://www.w3.org/1999/xlink">
 <defs>
  <style type="text/css">
   <![CDATA[
    .fil0 {fill:none}
    .fil1 {fill:white}
    .fil2 {fill:white;fill-rule:nonzero}
   ]]>
  </style>
 </defs>
 <g id="Layer_x0020_1">
  <metadata id="CorelCorpID_0Corel-Layer"/>
  <rect class="fil0" x="-13" width="525" height="400"/>
  <g id="_665963088">
   <polygon class="fil1" points="490,100 490,280 10,280 434,227 "/>
   <path class="fil2" d="M120 229l-29 5 26 -63 26 -4c5,-1 8,-1 11,0 3,1 5,1 6,3 2,3 2,6 0,10 -2,5 -5,9 -10,12 -1,1 -2,2 -3,2 -1,0 -1,1 -3,1 4,0 6,1 8,4 1,2 1,5 0,9 -2,4 -5,9 -10,12 -5,5 -12,8 -22,9zm1 -35l7 -1c4,-1 7,-2 10,-3 2,-1 4,-3 5,-6 1,-3 1,-5 0,-5 -1,-1 -4,-1 -9,0l-7 1 -6 14zm-11 26l10 -2c4,-1 8,-2 10,-3 3,-1 4,-3 6,-6 1,-3 1,-5 -1,-5 -2,-1 -5,0 -10,0l-9 1 -6 15z"/>
   <polygon id="1" class="fil2" points="235,173 203,211 194,212 190,180 174,220 159,223 185,159 205,156 208,188 239,151 259,147 233,210 219,213 "/>
   <path id="2" class="fil2" d="M302 140c12,-2 20,-1 24,4 4,4 4,12 0,21 -4,10 -10,18 -19,25 -9,7 -19,11 -32,13l-23 4 26 -63 23 -4zm-20 51c7,-1 13,-4 18,-7 5,-4 9,-9 11,-15 3,-6 3,-11 0,-13 -2,-3 -7,-3 -15,-2l-8 1 -16 38 9 -2z"/>
   <polygon id="3" class="fil2" points="389,126 406,123 373,157 382,186 364,189 359,170 336,194 318,196 354,160 346,133 363,130 368,147 "/>
  </g>
 </g>
</svg>
