<?xml version="1.0" encoding="UTF-8"?>
<!DOCTYPE svg PUBLIC "-//W3C//DTD SVG 1.0//EN" "http://www.w3.org/TR/2001/REC-SVG-20010904/DTD/svg10.dtd">
<!-- Creator: CorelDRAW 2017 -->
<svg xmlns="http://www.w3.org/2000/svg" xml:space="preserve" width="50.7998mm" height="42.3332mm" version="1.0" style="shape-rendering:geometricPrecision; text-rendering:geometricPrecision; image-rendering:optimizeQuality; fill-rule:evenodd; clip-rule:evenodd"
viewBox="0 0 5080 4233"
 xmlns:xlink="http://www.w3.org/1999/xlink">
 <defs>
  <style type="text/css">
   <![CDATA[
    .fil0 {fill:white}
   ]]>
  </style>
 </defs>
 <g id="Layer_x0020_1">
  <metadata id="CorelCorpID_0Corel-Layer"/>
  <g id="_386133048">
   <path class="fil0" d="M3562 1278l66 -10c19,-3 18,-7 21,12 2,12 4,23 5,33 11,-1 8,-5 23,-17 8,-6 15,-11 24,-16 57,-29 139,-31 196,-3 134,66 145,291 43,406 -14,16 -30,29 -49,41 -43,26 -75,26 -124,26 -19,0 -43,-4 -59,-9 -10,-3 -16,-5 -24,-10 -17,-10 -9,-13 -23,-13 0,20 0,41 0,61 0,23 2,38 2,59 0,20 0,41 0,61 0,22 2,39 2,59l-89 0c0,-18 4,-40 4,-57l6 -333c0,-28 -2,-51 -2,-77 0,-26 -3,-50 -4,-75 -1,-22 -13,-129 -18,-141zm47 1054l-329 0c-24,0 -21,-1 -40,-9 -44,-19 -104,-49 -147,-67l-147 -67c-20,-10 -59,-62 -78,-82 -5,-6 -7,-9 -13,-15 -25,-25 -76,-89 -101,-115 -6,-6 -7,-7 -12,-14 -14,-17 -41,-39 -47,-60l-26 -81c-26,-79 -51,-166 -77,-244 -5,-15 4,-77 6,-96l27 -268c1,-15 53,-97 65,-121 3,-6 7,-12 10,-18l86 -153c5,-9 14,-27 21,-33 5,-4 10,-8 16,-12l260 -193c14,-11 152,-37 172,-41l176 -38c14,-3 159,32 176,36l132 29c48,10 40,5 75,32l215 160c11,8 20,15 31,23 18,13 13,10 24,30l2 2c13,24 26,46 39,70l116 205c13,24 9,16 12,41l30 291c6,46 6,40 -2,69l-19 60c-26,79 -51,164 -77,244 -7,21 -17,33 -32,49l-75 85c-18,18 -69,82 -87,99 -41,41 -26,48 -87,73 -12,5 -24,11 -37,17l-73 33c-13,5 -25,11 -37,17 -12,6 -24,11 -37,16 -25,12 -49,22 -73,34 -16,8 -24,13 -37,13zm-608 -945c0,121 0,301 156,301 72,0 124,-5 159,-79 49,-102 23,-383 23,-506l87 0 -2 275c0,44 -4,119 -10,156 -21,126 -99,216 -230,216 -85,0 -164,-12 -215,-90 -58,-89 -51,-229 -51,-338 0,-75 -2,-144 -2,-220l89 0c0,42 -4,97 -4,141 0,48 -2,93 -2,143z"/>
   <path class="fil0" d="M2010 1830c0,-33 9,-56 35,-75 11,-8 49,0 67,0 64,0 166,-6 166,61 0,23 -1,40 -17,58 -53,59 -205,63 -241,-1 -6,-10 -11,-28 -11,-43zm127 -323c-45,0 -93,-30 -93,-77 0,-29 0,-53 23,-74 36,-32 96,-32 133,2 30,28 32,97 -1,125 -8,7 -17,12 -27,16 -7,3 -26,8 -36,8zm133 -220c-18,0 -37,-26 -109,-28 -22,-1 -29,-4 -63,0 -60,8 -101,19 -142,64 -48,54 -54,153 11,208 8,7 26,15 31,22 -5,7 -12,10 -18,16 -18,15 -37,44 -37,70 0,84 39,71 40,95 -12,0 -26,9 -34,14 -39,28 -49,61 -49,109 0,47 32,89 71,107 95,44 250,36 340,-22 52,-34 89,-79 89,-158 0,-22 -5,-41 -12,-56 -7,-14 -17,-28 -30,-38 -46,-35 -106,-38 -166,-38l-66 -3c-42,-6 -90,-1 -90,-55 0,-9 8,-16 13,-20 9,-7 14,-6 26,-3 41,9 107,6 146,-5 107,-30 149,-150 104,-225 -4,-7 -10,-14 -10,-20 0,-21 70,-24 93,-24 0,-22 10,-65 10,-93 -32,-7 -12,-10 -63,-10 -15,0 -25,3 -35,9 -29,15 -47,48 -50,83z"/>
   <path class="fil0" d="M792 1209c21,0 180,-11 184,-6 6,6 2,81 2,95l0 269c0,59 -4,113 -4,172l135 0c0,-35 -2,-63 -2,-99 0,-17 -2,-29 -2,-48l0 -392 158 6c8,1 12,2 22,2 0,-9 2,-12 2,-24 0,-9 0,-19 0,-28 0,-12 2,-14 2,-26 0,-9 0,-19 0,-28l-493 0 -2 52c0,12 -1,16 -2,26l0 28z"/>
   <path class="fil0" d="M3764 1694c54,0 92,-21 116,-52 78,-103 52,-318 -100,-318 -44,0 -82,10 -111,39 -8,8 -13,9 -14,24 0,14 2,21 2,36 0,15 1,24 2,36 1,12 -1,25 0,38l2 73c0,15 2,22 2,36 0,51 -11,59 36,77 18,7 41,12 65,12z"/>
   <path class="fil0" d="M1427 1327c0,-20 -4,-47 -8,-63l-123 14 10 50c10,57 14,112 14,172l-8 240 129 0c0,-33 -2,-60 -2,-93l0 -206c0,-7 8,-21 11,-26 42,-68 141,-26 153,-25 2,-4 5,-22 7,-29 3,-11 5,-18 7,-29l13 -58c-47,-11 -94,-33 -153,7 -5,3 -9,7 -13,10 -4,3 -9,8 -12,12 -4,5 -7,8 -10,13 -10,14 -5,11 -15,11z"/>
   <path class="fil0" d="M1691 1278c0,17 10,80 12,109 6,116 5,239 -4,353l131 0c0,-33 -4,-63 -4,-95 0,-34 -2,-64 -2,-99l0 -137c0,-38 6,-106 6,-145 -15,4 -128,14 -139,14z"/>
   <path class="fil0" d="M1695 1135c0,43 30,75 61,75 20,0 32,2 50,-7 23,-11 45,-40 45,-64 0,-29 1,-44 -21,-66 -42,-42 -135,-14 -135,62z"/>
   <polygon class="fil0" points="4086,916 4084,913 "/>
  </g>
 </g>
</svg>
